<mxfile host="65bd71144e">
    <diagram id="fjN8D4Odn0497USpxgly" name="Page-1">
        <mxGraphModel dx="1051" dy="782" grid="1" gridSize="10" guides="1" tooltips="1" connect="1" arrows="1" fold="1" page="1" pageScale="1" pageWidth="1169" pageHeight="827" background="#ffffff" math="0" shadow="0">
            <root>
                <mxCell id="0"/>
                <mxCell id="1" parent="0"/>
                <mxCell id="589" value="" style="rounded=0;whiteSpace=wrap;html=1;strokeColor=none;" parent="1" vertex="1">
                    <mxGeometry x="30" y="30" width="760" height="320" as="geometry"/>
                </mxCell>
                <mxCell id="573" value="&lt;b&gt;&lt;font style=&quot;font-size: 16px ; line-height: 2.8&quot;&gt;Basic API&lt;/font&gt;&lt;/b&gt;" style="html=1;dropTarget=0;verticalAlign=top;fillColor=#dae8fc;strokeColor=#6c8ebf;" parent="1" vertex="1">
                    <mxGeometry x="40" y="40" width="360" height="300" as="geometry"/>
                </mxCell>
                <mxCell id="575" value="&lt;b&gt;&lt;font style=&quot;font-size: 16px ; line-height: 2.8&quot;&gt;Schema Setup API&lt;/font&gt;&lt;/b&gt;" style="html=1;dropTarget=0;verticalAlign=top;fillColor=#ffe6cc;strokeColor=#d79b00;" parent="1" vertex="1">
                    <mxGeometry x="420" y="40" width="360" height="140" as="geometry"/>
                </mxCell>
                <mxCell id="577" value="get" style="rounded=0;whiteSpace=wrap;html=1;" parent="1" vertex="1">
                    <mxGeometry x="100" y="100" width="110" height="60" as="geometry"/>
                </mxCell>
                <mxCell id="578" value="set" style="rounded=0;whiteSpace=wrap;html=1;" parent="1" vertex="1">
                    <mxGeometry x="270" y="100" width="110" height="60" as="geometry"/>
                </mxCell>
                <mxCell id="579" value="commit" style="rounded=0;whiteSpace=wrap;html=1;" parent="1" vertex="1">
                    <mxGeometry x="100" y="180" width="110" height="60" as="geometry"/>
                </mxCell>
                <mxCell id="580" value="export" style="rounded=0;whiteSpace=wrap;html=1;" parent="1" vertex="1">
                    <mxGeometry x="270" y="180" width="110" height="60" as="geometry"/>
                </mxCell>
                <mxCell id="581" value="load" style="rounded=0;whiteSpace=wrap;html=1;" parent="1" vertex="1">
                    <mxGeometry x="100" y="260" width="110" height="60" as="geometry"/>
                </mxCell>
                <mxCell id="582" value="save" style="rounded=0;whiteSpace=wrap;html=1;" parent="1" vertex="1">
                    <mxGeometry x="270" y="260" width="110" height="60" as="geometry"/>
                </mxCell>
                <mxCell id="583" value="register_schema" style="rounded=0;whiteSpace=wrap;html=1;" parent="1" vertex="1">
                    <mxGeometry x="480" y="100" width="110" height="60" as="geometry"/>
                </mxCell>
                <mxCell id="584" value="register_schema-&lt;br&gt;_instance" style="rounded=0;whiteSpace=wrap;html=1;" parent="1" vertex="1">
                    <mxGeometry x="650" y="100" width="110" height="60" as="geometry"/>
                </mxCell>
                <mxCell id="585" value="&lt;b&gt;&lt;font style=&quot;font-size: 16px ; line-height: 2.8&quot;&gt;Store Setup API&lt;/font&gt;&lt;/b&gt;" style="html=1;dropTarget=0;verticalAlign=top;fillColor=#e1d5e7;strokeColor=#9673a6;" parent="1" vertex="1">
                    <mxGeometry x="420" y="200" width="360" height="140" as="geometry"/>
                </mxCell>
                <mxCell id="587" value="register_store_src" style="rounded=0;whiteSpace=wrap;html=1;" parent="1" vertex="1">
                    <mxGeometry x="480" y="260" width="110" height="60" as="geometry"/>
                </mxCell>
                <mxCell id="588" value="register_store_dst" style="rounded=0;whiteSpace=wrap;html=1;" parent="1" vertex="1">
                    <mxGeometry x="650" y="260" width="110" height="60" as="geometry"/>
                </mxCell>
                <mxCell id="591" value="" style="rounded=0;whiteSpace=wrap;html=1;" vertex="1" parent="1">
                    <mxGeometry x="440" y="100" width="40" height="60" as="geometry"/>
                </mxCell>
                <mxCell id="590" value="" style="shape=image;verticalLabelPosition=bottom;labelBackgroundColor=green;verticalAlign=top;aspect=fixed;imageAspect=0;image=data:image/svg+xml,PHN2ZyB4bWxucz0iaHR0cDovL3d3dy53My5vcmcvMjAwMC9zdmciIGhlaWdodD0iNDgiIHdpZHRoPSI0OCIgdmlld0JveD0iMCAwIDQ4IDQ4Ij48cGF0aCBkPSJNMjIuNSAzOFYyNS41SDEwVjIyLjVIMjIuNVYxMEgyNS41VjIyLjVIMzhWMjUuNUgyNS41VjM4WiIvPjwvc3ZnPg==;fontColor=green;" vertex="1" parent="1">
                    <mxGeometry x="445" y="115" width="30" height="30" as="geometry"/>
                </mxCell>
                <mxCell id="593" value="" style="rounded=0;whiteSpace=wrap;html=1;" vertex="1" parent="1">
                    <mxGeometry x="610" y="100" width="40" height="60" as="geometry"/>
                </mxCell>
                <mxCell id="594" value="" style="shape=image;verticalLabelPosition=bottom;labelBackgroundColor=green;verticalAlign=top;aspect=fixed;imageAspect=0;image=data:image/svg+xml,PHN2ZyB4bWxucz0iaHR0cDovL3d3dy53My5vcmcvMjAwMC9zdmciIGhlaWdodD0iNDgiIHdpZHRoPSI0OCIgdmlld0JveD0iMCAwIDQ4IDQ4Ij48cGF0aCBkPSJNMjIuNSAzOFYyNS41SDEwVjIyLjVIMjIuNVYxMEgyNS41VjIyLjVIMzhWMjUuNUgyNS41VjM4WiIvPjwvc3ZnPg==;fontColor=green;" vertex="1" parent="1">
                    <mxGeometry x="615" y="115" width="30" height="30" as="geometry"/>
                </mxCell>
                <mxCell id="595" value="" style="rounded=0;whiteSpace=wrap;html=1;" vertex="1" parent="1">
                    <mxGeometry x="440" y="260" width="40" height="60" as="geometry"/>
                </mxCell>
                <mxCell id="596" value="" style="shape=image;verticalLabelPosition=bottom;labelBackgroundColor=green;verticalAlign=top;aspect=fixed;imageAspect=0;image=data:image/svg+xml,PHN2ZyB4bWxucz0iaHR0cDovL3d3dy53My5vcmcvMjAwMC9zdmciIGhlaWdodD0iNDgiIHdpZHRoPSI0OCIgdmlld0JveD0iMCAwIDQ4IDQ4Ij48cGF0aCBkPSJNMjIuNSAzOFYyNS41SDEwVjIyLjVIMjIuNVYxMEgyNS41VjIyLjVIMzhWMjUuNUgyNS41VjM4WiIvPjwvc3ZnPg==;fontColor=green;" vertex="1" parent="1">
                    <mxGeometry x="445" y="275" width="30" height="30" as="geometry"/>
                </mxCell>
                <mxCell id="597" value="" style="rounded=0;whiteSpace=wrap;html=1;" vertex="1" parent="1">
                    <mxGeometry x="610" y="260" width="40" height="60" as="geometry"/>
                </mxCell>
                <mxCell id="598" value="" style="shape=image;verticalLabelPosition=bottom;labelBackgroundColor=green;verticalAlign=top;aspect=fixed;imageAspect=0;image=data:image/svg+xml,PHN2ZyB4bWxucz0iaHR0cDovL3d3dy53My5vcmcvMjAwMC9zdmciIGhlaWdodD0iNDgiIHdpZHRoPSI0OCIgdmlld0JveD0iMCAwIDQ4IDQ4Ij48cGF0aCBkPSJNMjIuNSAzOFYyNS41SDEwVjIyLjVIMjIuNVYxMEgyNS41VjIyLjVIMzhWMjUuNUgyNS41VjM4WiIvPjwvc3ZnPg==;fontColor=green;" vertex="1" parent="1">
                    <mxGeometry x="615" y="275" width="30" height="30" as="geometry"/>
                </mxCell>
                <mxCell id="599" value="" style="rounded=0;whiteSpace=wrap;html=1;" vertex="1" parent="1">
                    <mxGeometry x="60" y="100" width="40" height="60" as="geometry"/>
                </mxCell>
                <mxCell id="600" value="" style="rounded=0;whiteSpace=wrap;html=1;" vertex="1" parent="1">
                    <mxGeometry x="230" y="100" width="40" height="60" as="geometry"/>
                </mxCell>
                <mxCell id="601" value="" style="rounded=0;whiteSpace=wrap;html=1;" vertex="1" parent="1">
                    <mxGeometry x="60" y="180" width="40" height="60" as="geometry"/>
                </mxCell>
                <mxCell id="602" value="" style="rounded=0;whiteSpace=wrap;html=1;" vertex="1" parent="1">
                    <mxGeometry x="60" y="260" width="40" height="60" as="geometry"/>
                </mxCell>
                <mxCell id="603" value="" style="rounded=0;whiteSpace=wrap;html=1;" vertex="1" parent="1">
                    <mxGeometry x="230" y="180" width="40" height="60" as="geometry"/>
                </mxCell>
                <mxCell id="604" value="" style="rounded=0;whiteSpace=wrap;html=1;" vertex="1" parent="1">
                    <mxGeometry x="230" y="260" width="40" height="60" as="geometry"/>
                </mxCell>
                <mxCell id="606" value="" style="shape=image;verticalLabelPosition=bottom;labelBackgroundColor=#ffffff;verticalAlign=top;aspect=fixed;imageAspect=0;image=data:image/svg+xml,PHN2ZyB4bWxucz0iaHR0cDovL3d3dy53My5vcmcvMjAwMC9zdmciIGhlaWdodD0iNDgiIHdpZHRoPSI0OCIgdmlld0JveD0iMCAwIDQ4IDQ4Ij48cGF0aCBkPSJNMjIuNiAzNy45SDI1LjZWMjcuODVMMjkuNyAzMS45NUwzMS44IDI5Ljg1TDI0IDIyLjI1TDE2LjMgMjkuOTVMMTguNCAzMi4wNUwyMi42IDI3Ljg1Wk0zNyA0NEgxMVE5LjggNDQgOC45IDQzLjFROCA0Mi4yIDggNDFWN1E4IDUuOCA4LjkgNC45UTkuOCA0IDExIDRIMjkuMDVMNDAgMTQuOTVWNDFRNDAgNDIuMiAzOS4xIDQzLjFRMzguMiA0NCAzNyA0NFpNMjcuNTUgMTYuM1Y3SDExUTExIDcgMTEgN1ExMSA3IDExIDdWNDFRMTEgNDEgMTEgNDFRMTEgNDEgMTEgNDFIMzdRMzcgNDEgMzcgNDFRMzcgNDEgMzcgNDFWMTYuM1pNMTEgN1YxNi4zVjdWMTYuM1Y0MVExMSA0MSAxMSA0MVExMSA0MSAxMSA0MVExMSA0MSAxMSA0MVExMSA0MSAxMSA0MVY3UTExIDcgMTEgN1ExMSA3IDExIDdaIi8+PC9zdmc+;" vertex="1" parent="1">
                    <mxGeometry x="66" y="276" width="28" height="28" as="geometry"/>
                </mxCell>
                <mxCell id="607" value="" style="shape=image;verticalLabelPosition=bottom;labelBackgroundColor=#ffffff;verticalAlign=top;aspect=fixed;imageAspect=0;image=data:image/svg+xml,PHN2ZyB4bWxucz0iaHR0cDovL3d3dy53My5vcmcvMjAwMC9zdmciIGhlaWdodD0iNDgiIHdpZHRoPSI0OCIgdmlld0JveD0iMCAwIDQ4IDQ4Ij48cGF0aCBkPSJNNDIgMTMuODVWMzlRNDIgNDAuMiA0MS4xIDQxLjFRNDAuMiA0MiAzOSA0Mkg5UTcuOCA0MiA2LjkgNDEuMVE2IDQwLjIgNiAzOVY5UTYgNy44IDYuOSA2LjlRNy44IDYgOSA2SDM0LjE1Wk0zOSAxNS4yIDMyLjggOUg5UTkgOSA5IDlROSA5IDkgOVYzOVE5IDM5IDkgMzlROSAzOSA5IDM5SDM5UTM5IDM5IDM5IDM5UTM5IDM5IDM5IDM5Wk0yNCAzNS43NVEyNi4xNSAzNS43NSAyNy42NzUgMzQuMjI1UTI5LjIgMzIuNyAyOS4yIDMwLjU1UTI5LjIgMjguNCAyNy42NzUgMjYuODc1UTI2LjE1IDI1LjM1IDI0IDI1LjM1UTIxLjg1IDI1LjM1IDIwLjMyNSAyNi44NzVRMTguOCAyOC40IDE4LjggMzAuNTVRMTguOCAzMi43IDIwLjMyNSAzNC4yMjVRMjEuODUgMzUuNzUgMjQgMzUuNzVaTTExLjY1IDE4LjhIMjkuNTVWMTEuNjVIMTEuNjVaTTkgMTUuMlYzOVE5IDM5IDkgMzlROSAzOSA5IDM5UTkgMzkgOSAzOVE5IDM5IDkgMzlWOVE5IDkgOSA5UTkgOSA5IDlaIi8+PC9zdmc+;" vertex="1" parent="1">
                    <mxGeometry x="236" y="276" width="28" height="28" as="geometry"/>
                </mxCell>
                <mxCell id="608" value="" style="shape=image;verticalLabelPosition=bottom;labelBackgroundColor=#ffffff;verticalAlign=top;aspect=fixed;imageAspect=0;image=data:image/svg+xml,PHN2ZyB4bWxucz0iaHR0cDovL3d3dy53My5vcmcvMjAwMC9zdmciIGhlaWdodD0iNDgiIHdpZHRoPSI0OCIgdmlld0JveD0iMCAwIDQ4IDQ4Ij48cGF0aCBkPSJNMjQgNDRRMTkuNzUgNDQgMTYuMSA0Mi40NzVRMTIuNDUgNDAuOTUgOS43NSAzOC4yNVE3LjA1IDM1LjU1IDUuNTI1IDMxLjlRNCAyOC4yNSA0IDI0UTQgMTkuOCA1LjUyNSAxNi4xNVE3LjA1IDEyLjUgOS43NSA5LjhRMTIuNDUgNy4xIDE2LjEgNS41NVExOS43NSA0IDI0IDRRMjcuNzUgNCAzMSA1LjJRMzQuMjUgNi40IDM2Ljg1IDguNUwzNC43IDEwLjY1UTMyLjUgOC45IDI5LjggNy45NVEyNy4xIDcgMjQgN1ExNi43NSA3IDExLjg3NSAxMS44NzVRNyAxNi43NSA3IDI0UTcgMzEuMjUgMTEuODc1IDM2LjEyNVExNi43NSA0MSAyNCA0MVEzMS4yNSA0MSAzNi4xMjUgMzYuMTI1UTQxIDMxLjI1IDQxIDI0UTQxIDIyLjUgNDAuNzc1IDIxLjA3NVE0MC41NSAxOS42NSA0MC4xIDE4LjNMNDIuNCAxNlE0My4yIDE3Ljg1IDQzLjYgMTkuODVRNDQgMjEuODUgNDQgMjRRNDQgMjguMjUgNDIuNDUgMzEuOVE0MC45IDM1LjU1IDM4LjIgMzguMjVRMzUuNSA0MC45NSAzMS44NSA0Mi40NzVRMjguMiA0NCAyNCA0NFpNMjEuMDUgMzMuMSAxMi44IDI0LjggMTUuMDUgMjIuNTUgMjEuMDUgMjguNTUgNDEuNzUgNy44NSA0NC4wNSAxMC4xWiIvPjwvc3ZnPg==;" vertex="1" parent="1">
                    <mxGeometry x="66" y="196" width="28" height="28" as="geometry"/>
                </mxCell>
                <mxCell id="609" value="" style="shape=image;verticalLabelPosition=bottom;labelBackgroundColor=#ffffff;verticalAlign=top;aspect=fixed;imageAspect=0;image=data:image/svg+xml,PHN2ZyB4bWxucz0iaHR0cDovL3d3dy53My5vcmcvMjAwMC9zdmciIGhlaWdodD0iNDgiIHdpZHRoPSI0OCIgdmlld0JveD0iMCAwIDQ4IDQ4Ij48cGF0aCBkPSJNOSA0MlE3LjggNDIgNi45IDQxLjFRNiA0MC4yIDYgMzlWMjguNUg5VjM5UTkgMzkgOSAzOVE5IDM5IDkgMzlIMzlRMzkgMzkgMzkgMzlRMzkgMzkgMzkgMzlWOC45UTM5IDguOSAzOSA4LjlRMzkgOC45IDM5IDguOUg5UTkgOC45IDkgOC45UTkgOC45IDkgOC45VjE5LjVINlY4LjlRNiA3LjcgNi45IDYuOFE3LjggNS45IDkgNS45SDM5UTQwLjIgNS45IDQxLjEgNi44UTQyIDcuNyA0MiA4LjlWMzlRNDIgNDAuMiA0MS4xIDQxLjFRNDAuMiA0MiAzOSA0MlpNMjAuNjUgMzMuNjUgMTguNCAzMS40IDI0LjMgMjUuNUg2VjIyLjVIMjQuM0wxOC40IDE2LjZMMjAuNjUgMTQuMzVMMzAuMyAyNFoiLz48L3N2Zz4=;" vertex="1" parent="1">
                    <mxGeometry x="236" y="196" width="28" height="28" as="geometry"/>
                </mxCell>
                <mxCell id="610" value="" style="shape=image;verticalLabelPosition=bottom;labelBackgroundColor=#ffffff;verticalAlign=top;aspect=fixed;imageAspect=0;image=data:image/svg+xml,PHN2ZyB4bWxucz0iaHR0cDovL3d3dy53My5vcmcvMjAwMC9zdmciIGhlaWdodD0iNDgiIHdpZHRoPSI0OCIgdmlld0JveD0iMCAwIDQ4IDQ4Ij48cGF0aCBkPSJNOSAzOUgxMS4yTDMzLjM1IDE2Ljg1TDMxLjE1IDE0LjY1TDkgMzYuOFpNMzkuNyAxNC43IDMzLjMgOC4zIDM1LjQgNi4yUTM2LjI1IDUuMzUgMzcuNSA1LjM1UTM4Ljc1IDUuMzUgMzkuNiA2LjJMNDEuOCA4LjRRNDIuNjUgOS4yNSA0Mi42NSAxMC41UTQyLjY1IDExLjc1IDQxLjggMTIuNlpNMzcuNiAxNi44IDEyLjQgNDJINlYzNS42TDMxLjIgMTAuNFpNMzIuMjUgMTUuNzUgMzEuMTUgMTQuNjUgMzMuMzUgMTYuODVaIi8+PC9zdmc+;" vertex="1" parent="1">
                    <mxGeometry x="236" y="116" width="28" height="28" as="geometry"/>
                </mxCell>
                <mxCell id="611" value="" style="shape=image;verticalLabelPosition=bottom;labelBackgroundColor=#ffffff;verticalAlign=top;aspect=fixed;imageAspect=0;image=data:image/svg+xml,PHN2ZyB4bWxucz0iaHR0cDovL3d3dy53My5vcmcvMjAwMC9zdmciIGhlaWdodD0iNDgiIHdpZHRoPSI0OCIgdmlld0JveD0iMCAwIDQ4IDQ4Ij48cGF0aCBkPSJNMjQgMzEuNVEyNy41NSAzMS41IDMwLjAyNSAyOS4wMjVRMzIuNSAyNi41NSAzMi41IDIzUTMyLjUgMTkuNDUgMzAuMDI1IDE2Ljk3NVEyNy41NSAxNC41IDI0IDE0LjVRMjAuNDUgMTQuNSAxNy45NzUgMTYuOTc1UTE1LjUgMTkuNDUgMTUuNSAyM1ExNS41IDI2LjU1IDE3Ljk3NSAyOS4wMjVRMjAuNDUgMzEuNSAyNCAzMS41Wk0yNCAyOC42UTIxLjY1IDI4LjYgMjAuMDI1IDI2Ljk3NVExOC40IDI1LjM1IDE4LjQgMjNRMTguNCAyMC42NSAyMC4wMjUgMTkuMDI1UTIxLjY1IDE3LjQgMjQgMTcuNFEyNi4zNSAxNy40IDI3Ljk3NSAxOS4wMjVRMjkuNiAyMC42NSAyOS42IDIzUTI5LjYgMjUuMzUgMjcuOTc1IDI2Ljk3NVEyNi4zNSAyOC42IDI0IDI4LjZaTTI0IDM4UTE2LjcgMzggMTAuOCAzMy44NVE0LjkgMjkuNyAyIDIzUTQuOSAxNi4zIDEwLjggMTIuMTVRMTYuNyA4IDI0IDhRMzEuMyA4IDM3LjIgMTIuMTVRNDMuMSAxNi4zIDQ2IDIzUTQzLjEgMjkuNyAzNy4yIDMzLjg1UTMxLjMgMzggMjQgMzhaTTI0IDIzUTI0IDIzIDI0IDIzUTI0IDIzIDI0IDIzUTI0IDIzIDI0IDIzUTI0IDIzIDI0IDIzUTI0IDIzIDI0IDIzUTI0IDIzIDI0IDIzUTI0IDIzIDI0IDIzUTI0IDIzIDI0IDIzWk0yNCAzNVEzMC4wNSAzNSAzNS4xMjUgMzEuNzI1UTQwLjIgMjguNDUgNDIuODUgMjNRNDAuMiAxNy41NSAzNS4xMjUgMTQuMjc1UTMwLjA1IDExIDI0IDExUTE3Ljk1IDExIDEyLjg3NSAxNC4yNzVRNy44IDE3LjU1IDUuMSAyM1E3LjggMjguNDUgMTIuODc1IDMxLjcyNVExNy45NSAzNSAyNCAzNVoiLz48L3N2Zz4=;" vertex="1" parent="1">
                    <mxGeometry x="66" y="116" width="28" height="28" as="geometry"/>
                </mxCell>
            </root>
        </mxGraphModel>
    </diagram>
</mxfile>